The Twilight Saga  Breaking Dawn - Part 2 (2012) TS Xvid UnKnOwN

NOTES

Encoded By .......:UnKnOwN
Runtime ..........:1:45
IMDb URL ........:http://www.imdb.com/title/tt1673434/
Language .........:English
File Size ........:1.19gb
Release Date ......... 2012
Source       ......... Spanish/Your sister
File Type    ......... Single AVI
PS3 Compatible ....... Throw that Shit out the window
Genre        ......... Gay/Gayer

Video
ID                               : 0
Format                           : MPEG-4 Visual
Format profile                   : Advanced Simple@L5
Format settings, BVOP            : Yes
Format settings, QPel            : No
Format settings, GMC             : No warppoints
Format settings, Matrix          : Custom
Codec ID                         : XVID
Codec ID/Hint                    : XviD
Duration                         : 1h 45mn
Bit rate                         : 1681kbps
Width                            : 680pixels
Height                           : 308pixels
Display aspect ratio             : 2:35
Frame rate                       : 25.000fps
Color space                      : YUV
Chroma subsampling               : 4:2:0
Bit depth                        : 8 bits
Scan type                        : Progressive
Bits/(Pixel*Frame)               : 0.234
Stream size                      : 892 MiB (86%)
Writing library                  : XviD 1.2.1 (UTC 2008-12-04)

Audio
ID                               : 1
Format                           : AC3
Format/Info                      : MPEG
Mode extension                   : CM (complete main)
Codec ID                         : 2000
Duration                         : 1h 45mn
Bit rate mode                    : Constant
Bit rate                         : 192kbps
Channel(s)                       : 2channels
Channel positions                : Front: L R
Sampling rate                    : 48.0 KHz
Bit depth                        : 16 bits
Stream size                      : 302 MiB
Alignment                        : Aligned on interleaves
Interleave, duration             : 42 ms (1.00 video frame)
Interleave, preload duration     : 512 ms

SYNOPSIS
After the birth of Renesmee, the Cullens gather other vampire clans in order
to protect the child from a false allegation that puts the family in
front of the Volturi.

RELEASE INFO
Okay took the spanish cam cut it in 60 partsneeded some serious loving
blurred out the site name,crop crop rotate,adjusted colors smoother
sharpened it up and alkazaam
Some nice line as always from your sister synced to our encode

cut a 2 second scene out nothing important.Yes there is still camera movement
throughout some worse then others some barely noticable,All in all
more then watchable 2 samples included enjoy the gayest movie of 2012

And yes a/r does change a lot go figure why if you don't know

LOOKING FOR

Nothing you have

Stop p.m our bot accounts that are on 90% of sites you see our uploads
no you can not get a invite to The Realm Of UnKnOwN

GREETZ & RESPECT

YOUR MUM

MORE GOODIES COMING REAL SOON